HIERARCHY
ROOT root
{
	OFFSET	0	13.1	24.9
	CHANNELS 6  Xposition Yposition Zposition Xrotation Yrotation Zrotation
	JOINT spine_1
	{
		OFFSET	0	9.99999	0
		CHANNELS 3  Xrotation Yrotation Zrotation
		JOINT spine_2
		{
			OFFSET	0	112	-10
			CHANNELS 3  Xrotation Yrotation Zrotation
			JOINT spine_3
			{
				OFFSET	0	206.5	19.3
				CHANNELS 3  Xrotation Yrotation Zrotation
				JOINT spine_4
				{
					OFFSET	0	110.4	14.6
					CHANNELS 3  Xrotation Yrotation Zrotation
					JOINT neck_1
					{
						OFFSET	0	71.8	-50.3
						CHANNELS 3  Xrotation Yrotation Zrotation
						JOINT neck_2
						{
							OFFSET	0	86.2	-25.8
							CHANNELS 3  Xrotation Yrotation Zrotation
							JOINT head_ee
							{
								OFFSET	0	179.8	-8.7
								CHANNELS 3  Xrotation Yrotation Zrotation
								End Site
								{
									OFFSET	1	0	0
								}
							}
						}
					}
					JOINT left_clavicle
					{
						OFFSET	-43.2	22.4	-70.8
						CHANNELS 3  Xrotation Yrotation Zrotation
						JOINT left_shoulder
						{
							OFFSET	-93.9	-5.79999	48.7
							CHANNELS 3  Xrotation Yrotation Zrotation
							JOINT left_elbow
							{
								OFFSET	-291.4	-30.8	15.2
								CHANNELS 3  Xrotation Yrotation Zrotation
								JOINT left_lowarm_twist
								{
									OFFSET	-110.7	-3.89999	13.6
									CHANNELS 3  Xrotation Yrotation Zrotation
									JOINT left_hand
									{
										OFFSET	-110.7	-3.89999	13.6
										CHANNELS 3  Xrotation Yrotation Zrotation
										JOINT left_ee
										{
											OFFSET	-80.8	-5.10001	12.1
											CHANNELS 3  Xrotation Yrotation Zrotation
											End Site
											{
												OFFSET	1	0	0
											}
										}
									}
								}
							}
						}
					}
					JOINT right_clavicle
					{
						OFFSET	43.2	22.4	-70.8
						CHANNELS 3  Xrotation Yrotation Zrotation
						JOINT right_shoulder
						{
							OFFSET	93.9	-5.79999	48.7
							CHANNELS 3  Xrotation Yrotation Zrotation
							JOINT right_elbow
							{
								OFFSET	291.4	-30.8	15.2
								CHANNELS 3  Xrotation Yrotation Zrotation
								JOINT right_lowarm_twist
								{
									OFFSET	110.7	-3.89999	13.6
									CHANNELS 3  Xrotation Yrotation Zrotation
									JOINT right_hand
									{
										OFFSET	110.7	-3.89999	13.6
										CHANNELS 3  Xrotation Yrotation Zrotation
										JOINT right_ee
										{
											OFFSET	80.8	-5.10001	12.1
											CHANNELS 3  Xrotation Yrotation Zrotation
											End Site
											{
												OFFSET	1	0	0
											}
										}
									}
								}
							}
						}
					}
				}
			}
		}
	}
	JOINT left_hip
	{
		OFFSET	-82.8	-127.5	0.300001
		CHANNELS 3  Xrotation Yrotation Zrotation
		JOINT left_knee
		{
			OFFSET	-28.2	-396.7	2.2
			CHANNELS 3  Xrotation Yrotation Zrotation
			JOINT left_ankle
			{
				OFFSET	-11.7	-411.3	35.4
				CHANNELS 3  Xrotation Yrotation Zrotation
				JOINT left_toes
				{
					OFFSET	0	-60	-88.6
					CHANNELS 3  Xrotation Yrotation Zrotation
					JOINT left_foot_ee
					{
						OFFSET	-22.5	-16.5	-42.2
						CHANNELS 3  Xrotation Yrotation Zrotation
						End Site
						{
							OFFSET	1	0	0
						}
					}
				}
			}
		}
	}
	JOINT right_hip
	{
		OFFSET	82.8	-127.5	0.300001
		CHANNELS 3  Xrotation Yrotation Zrotation
		JOINT right_knee
		{
			OFFSET	28.2	-396.7	2.2
			CHANNELS 3  Xrotation Yrotation Zrotation
			JOINT right_ankle
			{
				OFFSET	11.7	-411.3	35.4
				CHANNELS 3  Xrotation Yrotation Zrotation
				JOINT right_toes
				{
					OFFSET	0	-60	-88.6
					CHANNELS 3  Xrotation Yrotation Zrotation
					JOINT right_foot_ee
					{
						OFFSET	22.5	-16.5	-42.2
						CHANNELS 3  Xrotation Yrotation Zrotation
						End Site
						{
							OFFSET	1	0	0
						}
					}
				}
			}
		}
	}
}
MOTION
Frames: 6
Frame Time: 0.02
1873.2 695.034 -661.415 143.36 -80.1265 141.728 -1.2744 -0.118247 -0.1179 -1.2744 -0.110505 -0.125185 -1.27414 -0.0784676 -0.147396 -1.27416 -0.100761 -0.133153 -21.42 12.348 15.1316 -21.1766 16.5864 19.3592 -0.0 0.0 -0.0 2.34844 22.4805 5.89346 -20.4816 -19.8291 64.5028 2.01281 -44.9114 0.831982 -16.8465 -0.887912 1.95485 0.540057 19.7734 11.2539 -0.0 0.0 -0.0 12.4297 26.5933 -24.2948 -6.26123 20.3743 -53.9741 0.636516 17.5008 -0.0979746 62.8409 2.03327 7.36366 6.58984 -2.95389 -52.1022 0.0 0.0 0.0 5.01253 -3.90639 -1.64514 -37.5829 -0.320194 5.65691 41.4491 16.3166 -5.08268 -31.1601 0.0 0.0 -0.0 0.0 -0.0 -1.18852 14.718 -2.57075 -32.7261 0.0699661 -4.95419 40.6688 -9.01184 4.92789 7.94807 -0.0 -0.0 0.0 0.0 0.0 
1883.56 694.892 -657.941 136.132 -79.7845 134.601 -1.45713 -0.117101 0.106465 -1.45713 -0.123638 0.0987982 -1.45736 -0.143392 0.0669802 -1.45734 -0.131014 0.0887856 -20.9297 12.7665 14.8572 -20.7359 17.3943 19.1962 -0.0 0.0 -0.0 2.1592 21.9045 5.60005 -21.3855 -20.4449 64.5897 1.77827 -41.3731 0.671523 -16.5681 -0.868648 1.92485 0.639077 21.8876 12.5857 -0.0 0.0 -0.0 12.744 26.2119 -25.0618 -5.5423 20.652 -52.9951 0.668849 18.3316 -0.107921 62.7686 2.02652 7.35732 6.70011 -3.27197 -53.5082 0.0 0.0 0.0 5.86926 -4.43664 -1.86303 -39.0588 -0.407975 5.86608 42.3359 15.5794 -5.14615 -30.8782 0.0 0.0 -0.0 0.0 -0.0 -1.97304 14.2935 -2.71317 -36.1294 0.239057 -5.44882 42.0128 -11.613 5.06392 9.89432 -0.0 -0.0 0.0 0.0 0.0 
1888.45 694.131 -653.493 131.557 -79.7194 129.693 -1.53527 -0.035523 0.435401 -1.53517 -0.0631564 0.432258 -1.53558 -0.163514 0.405092 -1.5358 -0.0974855 0.425832 -21.0726 12.6432 14.306 -20.9352 17.4615 18.6788 -0.0 0.0 -0.0 2.05004 21.1208 5.40405 -23.1118 -21.0796 63.6532 1.56477 -37.778 0.535434 -16.2605 -0.847544 1.89161 0.77223 23.5724 13.9409 -0.0 0.0 -0.0 12.7338 26.132 -25.0478 -4.65737 21.5376 -52.7328 0.782078 21.1772 -0.146203 62.7636 2.02605 7.35688 6.85827 -3.6144 -55.5479 0.0 0.0 0.0 7.96802 -5.06495 -1.61468 -40.8197 -0.519735 6.11263 41.3263 14.8783 -5.04792 -30.6831 0.0 0.0 -0.0 0.0 -0.0 -2.1758 15.8269 -3.4593 -38.0229 0.345799 -5.7195 40.5047 -13.9891 4.96298 10.2631 -0.0 -0.0 0.0 0.0 0.0 
1895.5 693.781 -651.631 131.315 -79.8054 129.309 -1.81517 0.0406687 0.550144 -1.815 0.00557969 0.551617 -1.81479 -0.127546 0.536698 -1.81519 -0.0411851 0.550105 -20.9544 13.1638 14.8555 -20.8036 18.173 19.3776 -0.0 0.0 -0.0 2.55729 20.2914 6.10334 -23.7679 -22.0861 63.6715 1.20271 -30.7848 0.331121 -15.578 -0.80135 1.81745 0.989467 25.1417 15.7214 -0.0 0.0 -0.0 12.9674 25.6209 -25.6457 -2.05796 21.8146 -52.5946 0.937574 24.912 -0.207104 62.6826 2.01848 7.34975 6.93242 -3.31473 -56.2805 0.0 0.0 0.0 10.0605 -1.69826 -2.98454 -42.0603 -0.603017 6.28426 39.5583 11.2699 -4.84796 -30.8324 0.0 0.0 -0.0 0.0 -0.0 -3.00387 15.4793 -3.35713 -37.5324 0.317287 -5.64971 39.3895 -13.4238 4.85604 10.6212 -0.0 -0.0 0.0 0.0 0.0 
1899.08 691.351 -649.807 128.22 -79.9836 125.934 -1.92555 0.126968 0.717582 -1.92526 0.0810508 0.724206 -1.92393 -0.0972748 0.722206 -1.92466 0.0180019 0.728505 -21.4248 13.0667 15.0364 -21.2679 18.028 19.6013 -0.0 0.0 -0.0 2.88744 20.6477 6.5993 -24.9072 -22.8693 63.0727 1.03927 -27.2398 0.251814 -15.2029 -0.776335 1.77646 1.06537 25.8387 16.3782 -0.0 0.0 -0.0 13.1661 26.0969 -26.0499 -0.236187 22.4104 -52.5927 1.02393 26.8947 -0.244835 62.7154 2.02154 7.35263 6.98041 -3.12858 -56.7657 0.0 0.0 0.0 12.2785 -0.210714 -3.70758 -42.5043 -0.633731 6.34526 39.8366 8.66022 -4.85354 -30.4607 0.0 0.0 -0.0 0.0 -0.0 -3.26096 14.5859 -3.08318 -38.6698 0.384319 -5.81118 37.8339 -15.0937 4.7347 10.6251 -0.0 -0.0 0.0 0.0 0.0 
1905.17 692.838 -648.272 125.097 -80.0911 122.69 -2.103 0.213313 0.831698 -2.10263 0.159959 0.843585 -2.09981 -0.0523498 0.857018 -2.10082 0.0836522 0.854531 -21.4726 13.0947 15.0463 -21.3203 18.0907 19.6338 -0.0 0.0 -0.0 3.03385 20.5198 6.80984 -26.1594 -23.3943 62.8183 0.897518 -23.9698 0.19053 -14.9073 -0.756816 1.74405 1.15755 26.5342 17.1225 -0.0 0.0 -0.0 13.3355 26.2597 -26.4226 1.60608 23.0574 -52.3144 1.14948 29.657 -0.304326 62.7528 2.02504 7.35592 7.03638 -2.98425 -57.3821 0.0 0.0 0.0 15.1344 1.31122 -4.67646 -42.5324 -0.635688 6.34911 39.0847 6.99705 -4.78035 -30.4213 0.0 0.0 -0.0 0.0 -0.0 -4.08804 14.7095 -3.21684 -38.4314 0.370002 -5.77744 36.9398 -15.5346 4.65584 10.625 -0.0 -0.0 0.0 0.0 0.0 
